<mxfile host="app.diagrams.net" agent="Mozilla/5.0 (Windows NT 10.0; Win64; x64) AppleWebKit/537.36 (KHTML, like Gecko) Chrome/134.0.0.0 Safari/537.36 Edg/134.0.0.0" version="26.1.1">
  <diagram name="Page-1" id="2cc2dc42-3aac-f2a9-1cec-7a8b7cbee084">
    <mxGraphModel dx="921" dy="1293" grid="1" gridSize="10" guides="1" tooltips="1" connect="1" arrows="1" fold="1" page="1" pageScale="1" pageWidth="1100" pageHeight="850" background="#ffffff" math="0" shadow="0">
      <root>
        <mxCell id="0" />
        <mxCell id="1" parent="0" />
        <mxCell id="7026571954dc6520-1" value="" style="strokeWidth=1;shadow=0;dashed=0;align=center;html=1;shape=mxgraph.mockup.containers.browserWindow;rSize=0;strokeColor=#666666;mainText=,;recursiveResize=0;rounded=0;labelBackgroundColor=none;fontFamily=Verdana;fontSize=12" parent="1" vertex="1">
          <mxGeometry x="30" y="-70" width="1050" height="820" as="geometry" />
        </mxCell>
        <mxCell id="7026571954dc6520-2" value="Page 1" style="strokeWidth=1;shadow=0;dashed=0;align=center;html=1;shape=mxgraph.mockup.containers.anchor;fontSize=17;fontColor=#666666;align=left;" parent="7026571954dc6520-1" vertex="1">
          <mxGeometry x="60" y="12" width="110" height="26" as="geometry" />
        </mxCell>
        <mxCell id="7026571954dc6520-3" value="https://www.default.com" style="strokeWidth=1;shadow=0;dashed=0;align=center;html=1;shape=mxgraph.mockup.containers.anchor;rSize=0;fontSize=17;fontColor=#666666;align=left;" parent="7026571954dc6520-1" vertex="1">
          <mxGeometry x="130" y="60" width="250" height="26" as="geometry" />
        </mxCell>
        <mxCell id="7026571954dc6520-4" value="LOGO" style="text;html=1;points=[];align=left;verticalAlign=top;spacingTop=-4;fontSize=30;fontFamily=Verdana" parent="7026571954dc6520-1" vertex="1">
          <mxGeometry x="70" y="130" width="125" height="50" as="geometry" />
        </mxCell>
        <mxCell id="7026571954dc6520-6" value="&lt;font&gt;&lt;u&gt;INICIO&lt;/u&gt;&lt;/font&gt;" style="text;html=1;points=[];align=left;verticalAlign=top;spacingTop=-4;fontSize=15;fontFamily=Merriweather Sans;fontSource=https%3A%2F%2Ffonts.googleapis.com%2Fcss%3Ffamily%3DMerriweather%2BSans;" parent="7026571954dc6520-1" vertex="1">
          <mxGeometry x="410" y="140" width="170" height="30" as="geometry" />
        </mxCell>
        <mxCell id="7026571954dc6520-8" value="&lt;font data-font-src=&quot;https://fonts.googleapis.com/css?family=Merriweather+Sans&quot; face=&quot;Merriweather Sans&quot;&gt;LA FINCA&lt;/font&gt;" style="text;html=1;points=[];align=left;verticalAlign=top;spacingTop=-4;fontSize=15;fontFamily=ROBOTO;fontSource=https%3A%2F%2Ffonts.googleapis.com%2Fcss%3Ffamily%3DROBOTO;" parent="7026571954dc6520-1" vertex="1">
          <mxGeometry x="510" y="140" width="170" height="30" as="geometry" />
        </mxCell>
        <mxCell id="7026571954dc6520-10" value="&lt;font face=&quot;Merriweather Sans&quot;&gt;NUESTROS PRODUCTOS&lt;span style=&quot;white-space: pre;&quot;&gt;&#x9;&lt;/span&gt;&lt;/font&gt;" style="text;html=1;points=[];align=left;verticalAlign=top;spacingTop=-4;fontSize=15;fontFamily=ROBOTO;fontSource=https%3A%2F%2Ffonts.googleapis.com%2Fcss%3Ffamily%3DROBOTO;" parent="7026571954dc6520-1" vertex="1">
          <mxGeometry x="610" y="140" width="170" height="30" as="geometry" />
        </mxCell>
        <mxCell id="7026571954dc6520-15" value="" style="verticalLabelPosition=bottom;shadow=0;dashed=0;align=center;html=1;verticalAlign=top;strokeWidth=1;shape=mxgraph.mockup.markup.line;strokeColor=#999999;rounded=0;labelBackgroundColor=none;fillColor=#ffffff;fontFamily=Verdana;fontSize=12;fontColor=#000000;" parent="7026571954dc6520-1" vertex="1">
          <mxGeometry y="180" width="1050" height="20" as="geometry" />
        </mxCell>
        <mxCell id="7026571954dc6520-21" value="" style="verticalLabelPosition=bottom;shadow=0;dashed=0;align=center;html=1;verticalAlign=top;strokeWidth=1;shape=mxgraph.mockup.markup.line;strokeColor=#999999;rounded=0;labelBackgroundColor=none;fillColor=#ffffff;fontFamily=Verdana;fontSize=12;fontColor=#000000;" parent="7026571954dc6520-1" vertex="1">
          <mxGeometry y="580" width="1050" height="80" as="geometry" />
        </mxCell>
        <mxCell id="7026571954dc6520-22" value="" style="verticalLabelPosition=bottom;shadow=0;dashed=0;align=center;html=1;verticalAlign=top;strokeWidth=1;shape=mxgraph.mockup.graphics.simpleIcon;strokeColor=#999999;fillColor=#ffffff;rounded=0;labelBackgroundColor=none;fontFamily=Verdana;fontSize=12;fontColor=#000000;" parent="7026571954dc6520-1" vertex="1">
          <mxGeometry x="20" y="220" width="1010" height="375" as="geometry" />
        </mxCell>
        <mxCell id="DtYzFk0tZi8KGS6SCTzv-1" value="&lt;font data-font-src=&quot;https://fonts.googleapis.com/css?family=Merriweather+Sans&quot; face=&quot;Merriweather Sans&quot;&gt;LOCALIZACIÃ“N&lt;/font&gt;" style="text;html=1;points=[];align=left;verticalAlign=top;spacingTop=-4;fontSize=15;fontFamily=ROBOTO;fontSource=https%3A%2F%2Ffonts.googleapis.com%2Fcss%3Ffamily%3DROBOTO;" vertex="1" parent="7026571954dc6520-1">
          <mxGeometry x="810" y="140" width="170" height="30" as="geometry" />
        </mxCell>
        <mxCell id="DtYzFk0tZi8KGS6SCTzv-3" value="&lt;font data-font-src=&quot;https://fonts.googleapis.com/css?family=Merriweather+Sans&quot; face=&quot;Merriweather Sans&quot;&gt;CONTACTO&lt;/font&gt;" style="text;html=1;points=[];align=left;verticalAlign=top;spacingTop=-4;fontSize=15;fontFamily=ROBOTO;fontSource=https%3A%2F%2Ffonts.googleapis.com%2Fcss%3Ffamily%3DROBOTO;" vertex="1" parent="7026571954dc6520-1">
          <mxGeometry x="940" y="140" width="170" height="30" as="geometry" />
        </mxCell>
        <mxCell id="7026571954dc6520-36" value="Lorem ipsum dolor sit amet, consectetur adipisicing elit, sed do eiusmod tempor incididunt ut labore et dolore magna aliqua. Ut enim ad minim veniam, quis nostrud exercitation ullamco laboris nisi ut aliquip ex ea commodo consequat. Duis aute irure dolor in reprehenderit in voluptate velit esse cillum dolore eu fugiat nulla pariatur. Excepteur sint occaecat cupidatat non proident, sunt in culpa qui officia deserunt mollit anim id est laborum.&lt;br&gt;Sed ut perspiciatis unde omnis iste natus error sit voluptatem accusantium doloremque laudantium, totam rem aperiam, eaque ipsa quae ab illo inventore veritatis et quasi architecto beatae vitae dicta sunt explicabo.&amp;nbsp;" style="text;spacingTop=-5;whiteSpace=wrap;html=1;align=left;fontSize=12;fontFamily=Helvetica;fillColor=none;strokeColor=none;rounded=0;shadow=1;labelBackgroundColor=none;" parent="7026571954dc6520-1" vertex="1">
          <mxGeometry x="30" y="640" width="1000" height="125" as="geometry" />
        </mxCell>
        <mxCell id="7026571954dc6520-12" value="Search" style="text;html=1;points=[];align=left;verticalAlign=top;spacingTop=-4;fontSize=15;fontFamily=Verdana" parent="1" vertex="1">
          <mxGeometry x="530" y="-140" width="170" height="30" as="geometry" />
        </mxCell>
        <mxCell id="7026571954dc6520-14" value="Search" style="strokeWidth=1;shadow=0;dashed=0;align=center;html=1;shape=mxgraph.mockup.forms.searchBox;strokeColor=#999999;mainText=;strokeColor2=#008cff;fontColor=#666666;fontSize=17;align=left;spacingLeft=3;rounded=0;labelBackgroundColor=none;" parent="1" vertex="1">
          <mxGeometry x="530" y="-110" width="220" height="30" as="geometry" />
        </mxCell>
        <mxCell id="7026571954dc6520-11" value="Some default text to fill some space, and&amp;nbsp;&lt;span&gt;something more so there is more text&lt;/span&gt;" style="text;html=1;points=[];align=left;verticalAlign=top;spacingTop=-4;fontSize=12;fontFamily=Verdana;whiteSpace=wrap;" parent="1" vertex="1">
          <mxGeometry x="800" y="-160" width="240" height="40" as="geometry" />
        </mxCell>
        <mxCell id="7026571954dc6520-34" value="Some default text to fill some space, and&amp;nbsp;&lt;span&gt;something more so there is more text&lt;/span&gt;" style="text;html=1;points=[];align=left;verticalAlign=top;spacingTop=-4;fontSize=12;fontFamily=Verdana;whiteSpace=wrap;" parent="1" vertex="1">
          <mxGeometry x="380" y="1130" width="470" height="40" as="geometry" />
        </mxCell>
        <mxCell id="7026571954dc6520-33" value="&lt;div style=&quot;text-align: justify&quot;&gt;&lt;span&gt;Some default text to fill some space, and&amp;nbsp;&lt;/span&gt;&lt;span&gt;something more so there is more text&lt;/span&gt;&lt;/div&gt;&lt;div style=&quot;text-align: justify&quot;&gt;&lt;hr id=&quot;null&quot; style=&quot;text-align: justify&quot;&gt;&lt;span&gt;&lt;div style=&quot;text-align: justify&quot;&gt;&lt;span&gt;Some default text to fill some space, and&amp;nbsp;&lt;/span&gt;&lt;span&gt;something more so there is more text&lt;/span&gt;&lt;/div&gt;&lt;/span&gt;&lt;/div&gt;&lt;hr id=&quot;null&quot; style=&quot;text-align: justify&quot;&gt;&lt;span&gt;&lt;div style=&quot;text-align: justify&quot;&gt;&lt;span&gt;Some default text to fill some space, and&amp;nbsp;&lt;/span&gt;&lt;span&gt;something more so there is more text&lt;/span&gt;&lt;/div&gt;&lt;/span&gt;&lt;hr id=&quot;null&quot; style=&quot;text-align: justify&quot;&gt;&lt;span&gt;&lt;div style=&quot;text-align: justify&quot;&gt;&lt;span&gt;Some default text to fill some space, and&amp;nbsp;&lt;/span&gt;&lt;span&gt;something more so there is more text&lt;/span&gt;&lt;/div&gt;&lt;/span&gt;&lt;hr id=&quot;null&quot; style=&quot;text-align: left&quot;&gt;" style="whiteSpace=wrap;html=1;rounded=0;shadow=0;labelBackgroundColor=none;strokeWidth=1;fontFamily=Verdana;fontSize=12;align=center;verticalAlign=top;" parent="1" vertex="1">
          <mxGeometry x="890" y="1120" width="260" height="170" as="geometry" />
        </mxCell>
        <mxCell id="7026571954dc6520-32" value="Title 3" style="text;html=1;points=[];align=left;verticalAlign=top;spacingTop=-4;fontSize=15;fontFamily=Verdana" parent="1" vertex="1">
          <mxGeometry x="890" y="1090" width="170" height="30" as="geometry" />
        </mxCell>
        <mxCell id="7026571954dc6520-17" value="Lorem ipsum dolor sit amet, consectetur adipisicing elit, sed do eiusmod tempor incididunt ut labore et dolore magna aliqua. Ut enim ad minim veniam, quis nostrud exercitation ullamco laboris nisi ut aliquip ex ea commodo consequat. Duis aute irure dolor in reprehenderit in voluptate velit esse cillum dolore eu fugiat nulla pariatur. Excepteur sint occaecat cupidatat non proident, sunt in culpa qui officia deserunt mollit anim id est laborum.&#xa;Sed ut perspiciatis unde omnis iste natus error sit voluptatem accusantium doloremque laudantium, totam rem aperiam, eaque ipsa quae ab illo inventore veritatis et quasi architecto beatae vitae dicta sunt explicabo. Nemo enim ipsam voluptatem quia voluptas sit aspernatur aut odit aut fugit, sed quia consequuntur magni dolores eos qui ratione voluptatem sequi nesciunt. Neque porro quisquam est, qui dolorem ipsum quia dolor sit amet, consectetur, adipisci velit, sed quia non numquam eius modi tempora incidunt ut labore et dolore magnam aliquam quaerat voluptatem. Ut enim ad minima veniam, quis nostrum exercitationem ullam corporis suscipit laboriosam, nisi ut aliquid ex ea commodi consequatur? Quis autem vel eum iure reprehenderit qui in ea voluptate velit esse quam nihil molestiae consequatur, vel illum qui dolorem eum fugiat quo voluptas nulla pariatur?" style="text;spacingTop=-5;whiteSpace=wrap;html=1;align=left;fontSize=12;fontFamily=Helvetica;fillColor=none;strokeColor=none;rounded=0;shadow=1;labelBackgroundColor=none;" parent="1" vertex="1">
          <mxGeometry x="30" y="1410" width="570" height="240" as="geometry" />
        </mxCell>
        <mxCell id="7026571954dc6520-16" value="Title 1" style="text;html=1;points=[];align=left;verticalAlign=top;spacingTop=-4;fontSize=15;fontFamily=Verdana" parent="1" vertex="1">
          <mxGeometry x="30" y="1370" width="170" height="30" as="geometry" />
        </mxCell>
        <mxCell id="7026571954dc6520-18" value="Button 1" style="strokeWidth=1;shadow=0;dashed=0;align=center;html=1;shape=mxgraph.mockup.buttons.button;strokeColor=#666666;mainText=;buttonStyle=round;fontSize=17;fontStyle=0;fillColor=none;whiteSpace=wrap;rounded=0;labelBackgroundColor=none;" parent="1" vertex="1">
          <mxGeometry x="800" y="1400" width="190" height="30" as="geometry" />
        </mxCell>
        <mxCell id="7026571954dc6520-19" value="Button 2" style="strokeWidth=1;shadow=0;dashed=0;align=center;html=1;shape=mxgraph.mockup.buttons.button;strokeColor=#666666;mainText=;buttonStyle=round;fontSize=17;fontStyle=0;fillColor=none;whiteSpace=wrap;rounded=0;labelBackgroundColor=none;" parent="1" vertex="1">
          <mxGeometry x="800" y="1445" width="190" height="30" as="geometry" />
        </mxCell>
        <mxCell id="7026571954dc6520-20" value="Some default text to fill some space, and&amp;nbsp;&lt;span&gt;something more so there is more text&lt;/span&gt;" style="text;html=1;points=[];align=left;verticalAlign=top;spacingTop=-4;fontSize=12;fontFamily=Verdana;whiteSpace=wrap;" parent="1" vertex="1">
          <mxGeometry x="800" y="1490" width="240" height="40" as="geometry" />
        </mxCell>
        <mxCell id="DtYzFk0tZi8KGS6SCTzv-5" value="&lt;span style=&quot;color: rgba(0, 0, 0, 0); font-family: monospace; font-size: 0px;&quot;&gt;%3CmxGraphModel%3E%3Croot%3E%3CmxCell%20id%3D%220%22%2F%3E%3CmxCell%20id%3D%221%22%20parent%3D%220%22%2F%3E%3CmxCell%20id%3D%222%22%20value%3D%22%26lt%3Bfont%20style%3D%26quot%3Bfont-size%3A%2048px%3B%26quot%3B%20data-font-src%3D%26quot%3Bhttps%3A%2F%2Ffonts.googleapis.com%2Fcss%3Ffamily%3DMerriweather%2BSans%26quot%3B%20face%3D%26quot%3BMerriweather%20Sans%26quot%3B%26gt%3BLA%20FINCA%26lt%3B%2Ffont%26gt%3B%22%20style%3D%22text%3Bhtml%3D1%3Bpoints%3D%5B%5D%3Balign%3Dleft%3BverticalAlign%3Dtop%3BspacingTop%3D-4%3BfontSize%3D15%3BfontFamily%3DROBOTO%3BfontSource%3Dhttps%253A%252F%252Ffonts.googleapis.com%252Fcss%253Ffamily%253DROBOTO%3B%22%20vertex%3D%221%22%20parent%3D%221%22%3E%3CmxGeometry%20x%3D%221580%22%20y%3D%2280%22%20width%3D%22210%22%20height%3D%2250%22%20as%3D%22geometry%22%2F%3E%3C%2FmxCell%3E%3C%2Froot%3E%3C%2FmxGraphModel%3E&lt;/span&gt;" style="strokeWidth=1;shadow=0;dashed=0;align=center;html=1;shape=mxgraph.mockup.containers.browserWindow;rSize=0;strokeColor=#666666;mainText=,;recursiveResize=0;rounded=0;labelBackgroundColor=none;fontFamily=Verdana;fontSize=12" vertex="1" parent="1">
          <mxGeometry x="1160" y="-140" width="1050" height="2330" as="geometry" />
        </mxCell>
        <mxCell id="DtYzFk0tZi8KGS6SCTzv-6" value="Page 2" style="strokeWidth=1;shadow=0;dashed=0;align=center;html=1;shape=mxgraph.mockup.containers.anchor;fontSize=17;fontColor=#666666;align=left;" vertex="1" parent="DtYzFk0tZi8KGS6SCTzv-5">
          <mxGeometry x="60" y="12" width="110" height="26" as="geometry" />
        </mxCell>
        <mxCell id="DtYzFk0tZi8KGS6SCTzv-7" value="https://www.default.com" style="strokeWidth=1;shadow=0;dashed=0;align=center;html=1;shape=mxgraph.mockup.containers.anchor;rSize=0;fontSize=17;fontColor=#666666;align=left;" vertex="1" parent="DtYzFk0tZi8KGS6SCTzv-5">
          <mxGeometry x="130" y="60" width="250" height="26" as="geometry" />
        </mxCell>
        <mxCell id="DtYzFk0tZi8KGS6SCTzv-8" value="LOGO" style="text;html=1;points=[];align=left;verticalAlign=top;spacingTop=-4;fontSize=30;fontFamily=Verdana" vertex="1" parent="DtYzFk0tZi8KGS6SCTzv-5">
          <mxGeometry x="70" y="130" width="125" height="50" as="geometry" />
        </mxCell>
        <mxCell id="DtYzFk0tZi8KGS6SCTzv-9" value="&lt;font&gt;INICIO&lt;/font&gt;" style="text;html=1;points=[];align=left;verticalAlign=top;spacingTop=-4;fontSize=15;fontFamily=Merriweather Sans;fontSource=https%3A%2F%2Ffonts.googleapis.com%2Fcss%3Ffamily%3DMerriweather%2BSans;" vertex="1" parent="DtYzFk0tZi8KGS6SCTzv-5">
          <mxGeometry x="410" y="140" width="170" height="30" as="geometry" />
        </mxCell>
        <mxCell id="DtYzFk0tZi8KGS6SCTzv-10" value="&lt;font data-font-src=&quot;https://fonts.googleapis.com/css?family=Merriweather+Sans&quot; face=&quot;Merriweather Sans&quot;&gt;&lt;u&gt;LA FINCA&lt;/u&gt;&lt;/font&gt;" style="text;html=1;points=[];align=left;verticalAlign=top;spacingTop=-4;fontSize=15;fontFamily=ROBOTO;fontSource=https%3A%2F%2Ffonts.googleapis.com%2Fcss%3Ffamily%3DROBOTO;" vertex="1" parent="DtYzFk0tZi8KGS6SCTzv-5">
          <mxGeometry x="510" y="140" width="170" height="30" as="geometry" />
        </mxCell>
        <mxCell id="DtYzFk0tZi8KGS6SCTzv-11" value="&lt;font face=&quot;Merriweather Sans&quot;&gt;NUESTROS PRODUCTOS&lt;span style=&quot;white-space: pre;&quot;&gt;&#x9;&lt;/span&gt;&lt;/font&gt;" style="text;html=1;points=[];align=left;verticalAlign=top;spacingTop=-4;fontSize=15;fontFamily=ROBOTO;fontSource=https%3A%2F%2Ffonts.googleapis.com%2Fcss%3Ffamily%3DROBOTO;" vertex="1" parent="DtYzFk0tZi8KGS6SCTzv-5">
          <mxGeometry x="610" y="140" width="170" height="30" as="geometry" />
        </mxCell>
        <mxCell id="DtYzFk0tZi8KGS6SCTzv-12" value="" style="verticalLabelPosition=bottom;shadow=0;dashed=0;align=center;html=1;verticalAlign=top;strokeWidth=1;shape=mxgraph.mockup.markup.line;strokeColor=#999999;rounded=0;labelBackgroundColor=none;fillColor=#ffffff;fontFamily=Verdana;fontSize=12;fontColor=#000000;" vertex="1" parent="DtYzFk0tZi8KGS6SCTzv-5">
          <mxGeometry y="180" width="1050" height="20" as="geometry" />
        </mxCell>
        <mxCell id="DtYzFk0tZi8KGS6SCTzv-13" value="" style="verticalLabelPosition=bottom;shadow=0;dashed=0;align=center;html=1;verticalAlign=top;strokeWidth=1;shape=mxgraph.mockup.markup.line;strokeColor=#999999;rounded=0;labelBackgroundColor=none;fillColor=#ffffff;fontFamily=Verdana;fontSize=12;fontColor=#000000;" vertex="1" parent="DtYzFk0tZi8KGS6SCTzv-5">
          <mxGeometry y="837.5" width="1050" height="80" as="geometry" />
        </mxCell>
        <mxCell id="DtYzFk0tZi8KGS6SCTzv-14" value="" style="verticalLabelPosition=bottom;shadow=0;dashed=0;align=center;html=1;verticalAlign=top;strokeWidth=1;shape=mxgraph.mockup.graphics.simpleIcon;strokeColor=#999999;fillColor=#ffffff;rounded=0;labelBackgroundColor=none;fontFamily=Verdana;fontSize=12;fontColor=#000000;" vertex="1" parent="DtYzFk0tZi8KGS6SCTzv-5">
          <mxGeometry x="60" y="440" width="225" height="215" as="geometry" />
        </mxCell>
        <mxCell id="DtYzFk0tZi8KGS6SCTzv-15" value="&lt;font data-font-src=&quot;https://fonts.googleapis.com/css?family=Merriweather+Sans&quot; face=&quot;Merriweather Sans&quot;&gt;LOCALIZACIÃ“N&lt;/font&gt;" style="text;html=1;points=[];align=left;verticalAlign=top;spacingTop=-4;fontSize=15;fontFamily=ROBOTO;fontSource=https%3A%2F%2Ffonts.googleapis.com%2Fcss%3Ffamily%3DROBOTO;" vertex="1" parent="DtYzFk0tZi8KGS6SCTzv-5">
          <mxGeometry x="810" y="140" width="170" height="30" as="geometry" />
        </mxCell>
        <mxCell id="DtYzFk0tZi8KGS6SCTzv-16" value="&lt;font data-font-src=&quot;https://fonts.googleapis.com/css?family=Merriweather+Sans&quot; face=&quot;Merriweather Sans&quot;&gt;CONTACTO&lt;/font&gt;" style="text;html=1;points=[];align=left;verticalAlign=top;spacingTop=-4;fontSize=15;fontFamily=ROBOTO;fontSource=https%3A%2F%2Ffonts.googleapis.com%2Fcss%3Ffamily%3DROBOTO;" vertex="1" parent="DtYzFk0tZi8KGS6SCTzv-5">
          <mxGeometry x="940" y="140" width="170" height="30" as="geometry" />
        </mxCell>
        <mxCell id="DtYzFk0tZi8KGS6SCTzv-17" value="Lorem ipsum dolor sit amet, consectetur adipisicing elit, sed do eiusmod tempor incididunt ut labore et dolore magna aliqua. Ut enim ad minim veniam, quis nostrud exercitation ullamco laboris nisi ut aliquip ex ea commodo consequat. Duis aute irure dolor in reprehenderit in voluptate velit esse cillum dolore eu fugiat nulla pariatur. Excepteur sint occaecat cupidatat non proident, sunt in culpa qui officia deserunt mollit anim id est laborum.&lt;br&gt;Sed ut perspiciatis unde omnis iste natus error sit voluptatem accusantium doloremque laudantium, totam rem aperiam, eaque ipsa quae ab illo inventore veritatis et quasi architecto beatae vitae dicta sunt explicabo.&amp;nbsp;&lt;div&gt;&lt;br&gt;&lt;/div&gt;&lt;div&gt;Lorem ipsum dolor sit amet, consectetur adipisicing elit, sed do eiusmod tempor incididunt ut labore et dolore magna aliqua. Ut enim ad minim veniam, quis nostrud exercitation ullamco laboris nisi ut aliquip ex ea commodo consequat. Duis aute irure dolor in reprehenderit in voluptate velit esse cillum dolore eu fugiat nulla pariatur. Excepteur sint occaecat cupidatat non proident, sunt in culpa qui officia deserunt mollit anim id est laborum.&lt;br&gt;Sed ut perspiciatis unde omnis iste natus error sit voluptatem accusantium doloremque laudantium, totam rem aperiam, eaque ipsa quae ab illo inventore veritatis et quasi architecto beatae vitae dicta sunt explicabo.&amp;nbsp;&lt;/div&gt;" style="text;spacingTop=-5;whiteSpace=wrap;html=1;align=left;fontSize=12;fontFamily=Helvetica;fillColor=none;strokeColor=none;rounded=0;shadow=1;labelBackgroundColor=none;" vertex="1" parent="DtYzFk0tZi8KGS6SCTzv-5">
          <mxGeometry x="395" y="440" width="600" height="120" as="geometry" />
        </mxCell>
        <mxCell id="7026571954dc6520-31" value="&lt;font style=&quot;font-size: 22px;&quot; data-font-src=&quot;https://fonts.googleapis.com/css?family=Merriweather+Sans&quot; face=&quot;Merriweather Sans&quot;&gt;Â¿QuÃ© animales puedesencontrar aquÃ­?&lt;/font&gt;" style="text;html=1;points=[];align=left;verticalAlign=top;spacingTop=-4;fontSize=15;fontFamily=Verdana" parent="DtYzFk0tZi8KGS6SCTzv-5" vertex="1">
          <mxGeometry x="60" y="320" width="410" height="30" as="geometry" />
        </mxCell>
        <mxCell id="DtYzFk0tZi8KGS6SCTzv-19" value="" style="verticalLabelPosition=bottom;shadow=0;dashed=0;align=center;html=1;verticalAlign=top;strokeWidth=1;shape=mxgraph.mockup.graphics.simpleIcon;strokeColor=#999999;fillColor=#ffffff;rounded=0;labelBackgroundColor=none;fontFamily=Verdana;fontSize=12;fontColor=#000000;" vertex="1" parent="DtYzFk0tZi8KGS6SCTzv-5">
          <mxGeometry x="57.5" y="960" width="225" height="215" as="geometry" />
        </mxCell>
        <mxCell id="DtYzFk0tZi8KGS6SCTzv-20" value="" style="verticalLabelPosition=bottom;shadow=0;dashed=0;align=center;html=1;verticalAlign=top;strokeWidth=1;shape=mxgraph.mockup.graphics.simpleIcon;strokeColor=#999999;fillColor=#ffffff;rounded=0;labelBackgroundColor=none;fontFamily=Verdana;fontSize=12;fontColor=#000000;" vertex="1" parent="DtYzFk0tZi8KGS6SCTzv-5">
          <mxGeometry x="60" y="1760" width="200" height="200" as="geometry" />
        </mxCell>
        <mxCell id="DtYzFk0tZi8KGS6SCTzv-21" value="&lt;font style=&quot;font-size: 48px;&quot; data-font-src=&quot;https://fonts.googleapis.com/css?family=Merriweather+Sans&quot; face=&quot;Merriweather Sans&quot;&gt;LA FINCA&lt;/font&gt;" style="text;html=1;points=[];align=left;verticalAlign=top;spacingTop=-4;fontSize=15;fontFamily=ROBOTO;fontSource=https%3A%2F%2Ffonts.googleapis.com%2Fcss%3Ffamily%3DROBOTO;" vertex="1" parent="DtYzFk0tZi8KGS6SCTzv-5">
          <mxGeometry x="420" y="220" width="210" height="50" as="geometry" />
        </mxCell>
        <mxCell id="DtYzFk0tZi8KGS6SCTzv-22" value="" style="verticalLabelPosition=bottom;shadow=0;dashed=0;align=center;html=1;verticalAlign=top;strokeWidth=1;shape=mxgraph.mockup.graphics.simpleIcon;strokeColor=#999999;fillColor=#ffffff;rounded=0;labelBackgroundColor=none;fontFamily=Verdana;fontSize=12;fontColor=#000000;" vertex="1" parent="DtYzFk0tZi8KGS6SCTzv-5">
          <mxGeometry x="300" y="1760" width="200" height="200" as="geometry" />
        </mxCell>
        <mxCell id="DtYzFk0tZi8KGS6SCTzv-23" value="&lt;font face=&quot;Merriweather Sans&quot;&gt;&lt;span style=&quot;font-size: 48px;&quot;&gt;Vacas&lt;/span&gt;&lt;/font&gt;" style="text;html=1;points=[];align=left;verticalAlign=top;spacingTop=-4;fontSize=15;fontFamily=ROBOTO;fontSource=https%3A%2F%2Ffonts.googleapis.com%2Fcss%3Ffamily%3DROBOTO;" vertex="1" parent="DtYzFk0tZi8KGS6SCTzv-5">
          <mxGeometry x="60" y="360" width="160" height="50" as="geometry" />
        </mxCell>
        <mxCell id="DtYzFk0tZi8KGS6SCTzv-24" value="&lt;font face=&quot;Merriweather Sans&quot;&gt;&lt;span style=&quot;font-size: 48px;&quot;&gt;Cerdos&lt;/span&gt;&lt;/font&gt;" style="text;html=1;points=[];align=left;verticalAlign=top;spacingTop=-4;fontSize=15;fontFamily=ROBOTO;fontSource=https%3A%2F%2Ffonts.googleapis.com%2Fcss%3Ffamily%3DROBOTO;" vertex="1" parent="DtYzFk0tZi8KGS6SCTzv-5">
          <mxGeometry x="60" y="885" width="160" height="50" as="geometry" />
        </mxCell>
        <mxCell id="DtYzFk0tZi8KGS6SCTzv-25" value="Lorem ipsum dolor sit amet, consectetur adipisicing elit, sed do eiusmod tempor incididunt ut labore et dolore magna aliqua. Ut enim ad minim veniam, quis nostrud exercitation ullamco laboris nisi ut aliquip ex ea commodo consequat. Duis aute irure dolor in reprehenderit in voluptate velit esse cillum dolore eu fugiat nulla pariatur. Excepteur sint occaecat cupidatat non proident, sunt in culpa qui officia deserunt mollit anim id est laborum.&lt;br&gt;Sed ut perspiciatis unde omnis iste natus error sit voluptatem accusantium doloremque laudantium, totam rem aperiam, eaque ipsa quae ab illo inventore veritatis et quasi architecto beatae vitae dicta sunt explicabo.&amp;nbsp;" style="text;spacingTop=-5;whiteSpace=wrap;html=1;align=left;fontSize=12;fontFamily=Helvetica;fillColor=none;strokeColor=none;rounded=0;shadow=1;labelBackgroundColor=none;" vertex="1" parent="DtYzFk0tZi8KGS6SCTzv-5">
          <mxGeometry x="370" y="970" width="610" height="190" as="geometry" />
        </mxCell>
        <mxCell id="DtYzFk0tZi8KGS6SCTzv-26" value="&lt;font face=&quot;Merriweather Sans&quot;&gt;&lt;span style=&quot;font-size: 48px;&quot;&gt;Nuestros compaÃ±eros&lt;/span&gt;&lt;/font&gt;" style="text;html=1;points=[];align=left;verticalAlign=top;spacingTop=-4;fontSize=15;fontFamily=ROBOTO;fontSource=https%3A%2F%2Ffonts.googleapis.com%2Fcss%3Ffamily%3DROBOTO;" vertex="1" parent="DtYzFk0tZi8KGS6SCTzv-5">
          <mxGeometry x="52.5" y="1650" width="550" height="50" as="geometry" />
        </mxCell>
        <mxCell id="DtYzFk0tZi8KGS6SCTzv-28" value="" style="shape=singleArrow;direction=west;whiteSpace=wrap;html=1;" vertex="1" parent="DtYzFk0tZi8KGS6SCTzv-5">
          <mxGeometry x="130" y="655" width="35" height="20" as="geometry" />
        </mxCell>
        <mxCell id="DtYzFk0tZi8KGS6SCTzv-29" value="" style="shape=singleArrow;direction=east;whiteSpace=wrap;html=1;" vertex="1" parent="DtYzFk0tZi8KGS6SCTzv-5">
          <mxGeometry x="180" y="655" width="30" height="20" as="geometry" />
        </mxCell>
        <mxCell id="DtYzFk0tZi8KGS6SCTzv-33" value="" style="verticalLabelPosition=bottom;shadow=0;dashed=0;align=center;html=1;verticalAlign=top;strokeWidth=1;shape=mxgraph.mockup.graphics.simpleIcon;strokeColor=#999999;fillColor=#ffffff;rounded=0;labelBackgroundColor=none;fontFamily=Verdana;fontSize=12;fontColor=#000000;" vertex="1" parent="DtYzFk0tZi8KGS6SCTzv-5">
          <mxGeometry x="395" y="675" width="580" height="195" as="geometry" />
        </mxCell>
        <mxCell id="DtYzFk0tZi8KGS6SCTzv-34" value="" style="html=1;verticalLabelPosition=bottom;align=center;labelBackgroundColor=#ffffff;verticalAlign=top;strokeWidth=2;strokeColor=#0080F0;shadow=0;dashed=0;shape=mxgraph.ios7.icons.video_conversation;" vertex="1" parent="DtYzFk0tZi8KGS6SCTzv-5">
          <mxGeometry x="620" y="707.5" width="230" height="130" as="geometry" />
        </mxCell>
        <mxCell id="DtYzFk0tZi8KGS6SCTzv-35" value="&lt;font data-font-src=&quot;https://fonts.googleapis.com/css?family=Merriweather+Sans&quot; face=&quot;Merriweather Sans&quot;&gt;Video elaboraciÃ³n queso La Payesa&lt;/font&gt;" style="text;html=1;points=[];align=left;verticalAlign=top;spacingTop=-4;fontSize=12;fontFamily=Verdana;whiteSpace=wrap;" vertex="1" parent="DtYzFk0tZi8KGS6SCTzv-5">
          <mxGeometry x="640" y="750" width="120" height="42.5" as="geometry" />
        </mxCell>
        <mxCell id="DtYzFk0tZi8KGS6SCTzv-67" value="" style="verticalLabelPosition=bottom;shadow=0;dashed=0;align=center;html=1;verticalAlign=top;strokeWidth=1;shape=mxgraph.mockup.graphics.simpleIcon;strokeColor=#999999;fillColor=#ffffff;rounded=0;labelBackgroundColor=none;fontFamily=Verdana;fontSize=12;fontColor=#000000;" vertex="1" parent="DtYzFk0tZi8KGS6SCTzv-5">
          <mxGeometry x="540" y="1760" width="200" height="200" as="geometry" />
        </mxCell>
        <mxCell id="DtYzFk0tZi8KGS6SCTzv-68" value="" style="verticalLabelPosition=bottom;shadow=0;dashed=0;align=center;html=1;verticalAlign=top;strokeWidth=1;shape=mxgraph.mockup.graphics.simpleIcon;strokeColor=#999999;fillColor=#ffffff;rounded=0;labelBackgroundColor=none;fontFamily=Verdana;fontSize=12;fontColor=#000000;" vertex="1" parent="DtYzFk0tZi8KGS6SCTzv-5">
          <mxGeometry x="780" y="1760" width="200" height="200" as="geometry" />
        </mxCell>
        <mxCell id="DtYzFk0tZi8KGS6SCTzv-69" value="" style="verticalLabelPosition=bottom;shadow=0;dashed=0;align=center;html=1;verticalAlign=top;strokeWidth=1;shape=mxgraph.mockup.markup.line;strokeColor=#999999;rounded=0;labelBackgroundColor=none;fillColor=#ffffff;fontFamily=Verdana;fontSize=12;fontColor=#000000;" vertex="1" parent="DtYzFk0tZi8KGS6SCTzv-5">
          <mxGeometry y="1175" width="1050" height="80" as="geometry" />
        </mxCell>
        <mxCell id="DtYzFk0tZi8KGS6SCTzv-71" value="&lt;font face=&quot;Merriweather Sans&quot; style=&quot;font-size: 32px;&quot;&gt;Perra&lt;/font&gt;" style="text;html=1;points=[];align=center;verticalAlign=top;spacingTop=-4;fontSize=15;fontFamily=ROBOTO;fontSource=https%3A%2F%2Ffonts.googleapis.com%2Fcss%3Ffamily%3DROBOTO;" vertex="1" parent="DtYzFk0tZi8KGS6SCTzv-5">
          <mxGeometry x="80" y="1960" width="160" height="50" as="geometry" />
        </mxCell>
        <mxCell id="DtYzFk0tZi8KGS6SCTzv-72" value="&lt;font face=&quot;Merriweather Sans&quot; style=&quot;font-size: 32px;&quot;&gt;Potro&lt;/font&gt;" style="text;html=1;points=[];align=center;verticalAlign=top;spacingTop=-4;fontSize=15;fontFamily=ROBOTO;fontSource=https%3A%2F%2Ffonts.googleapis.com%2Fcss%3Ffamily%3DROBOTO;" vertex="1" parent="DtYzFk0tZi8KGS6SCTzv-5">
          <mxGeometry x="320" y="1960" width="160" height="50" as="geometry" />
        </mxCell>
        <mxCell id="DtYzFk0tZi8KGS6SCTzv-73" value="&lt;font face=&quot;Merriweather Sans&quot; style=&quot;font-size: 32px;&quot;&gt;Perdiz&lt;/font&gt;" style="text;html=1;points=[];align=center;verticalAlign=top;spacingTop=-4;fontSize=15;fontFamily=ROBOTO;fontSource=https%3A%2F%2Ffonts.googleapis.com%2Fcss%3Ffamily%3DROBOTO;" vertex="1" parent="DtYzFk0tZi8KGS6SCTzv-5">
          <mxGeometry x="560" y="1960" width="160" height="50" as="geometry" />
        </mxCell>
        <mxCell id="DtYzFk0tZi8KGS6SCTzv-74" value="&lt;font face=&quot;Merriweather Sans&quot; style=&quot;font-size: 32px;&quot;&gt;Cabra&lt;/font&gt;" style="text;html=1;points=[];align=center;verticalAlign=top;spacingTop=-4;fontSize=15;fontFamily=ROBOTO;fontSource=https%3A%2F%2Ffonts.googleapis.com%2Fcss%3Ffamily%3DROBOTO;" vertex="1" parent="DtYzFk0tZi8KGS6SCTzv-5">
          <mxGeometry x="800" y="1960" width="160" height="50" as="geometry" />
        </mxCell>
        <mxCell id="DtYzFk0tZi8KGS6SCTzv-110" value="Lorem ipsum dolor sit amet, consectetur adipisicing elit, sed do eiusmod tempor incididunt ut labore et dolore magna aliqua. Ut enim ad minim veniam, quis nostrud exercitation ullamco laboris nisi ut aliquip ex ea commodo consequat.&amp;nbsp;" style="text;spacingTop=-5;whiteSpace=wrap;html=1;align=left;fontSize=12;fontFamily=Helvetica;fillColor=none;strokeColor=none;rounded=0;shadow=1;labelBackgroundColor=none;" vertex="1" parent="DtYzFk0tZi8KGS6SCTzv-5">
          <mxGeometry x="60" y="2010" width="200" height="150" as="geometry" />
        </mxCell>
        <mxCell id="DtYzFk0tZi8KGS6SCTzv-111" value="Lorem ipsum dolor sit amet, consectetur adipisicing elit, sed do eiusmod tempor incididunt ut labore et dolore magna aliqua. Ut enim ad minim veniam, quis nostrud exercitation ullamco laboris nisi ut aliquip ex ea commodo consequat.&amp;nbsp;" style="text;spacingTop=-5;whiteSpace=wrap;html=1;align=left;fontSize=12;fontFamily=Helvetica;fillColor=none;strokeColor=none;rounded=0;shadow=1;labelBackgroundColor=none;" vertex="1" parent="DtYzFk0tZi8KGS6SCTzv-5">
          <mxGeometry x="300" y="2010" width="200" height="150" as="geometry" />
        </mxCell>
        <mxCell id="DtYzFk0tZi8KGS6SCTzv-148" value="Lorem ipsum dolor sit amet, consectetur adipisicing elit, sed do eiusmod tempor incididunt ut labore et dolore magna aliqua. Ut enim ad minim veniam, quis nostrud exercitation ullamco laboris nisi ut aliquip ex ea commodo consequat.&amp;nbsp;" style="text;spacingTop=-5;whiteSpace=wrap;html=1;align=left;fontSize=12;fontFamily=Helvetica;fillColor=none;strokeColor=none;rounded=0;shadow=1;labelBackgroundColor=none;" vertex="1" parent="DtYzFk0tZi8KGS6SCTzv-5">
          <mxGeometry x="540" y="2010" width="200" height="150" as="geometry" />
        </mxCell>
        <mxCell id="DtYzFk0tZi8KGS6SCTzv-149" value="Lorem ipsum dolor sit amet, consectetur adipisicing elit, sed do eiusmod tempor incididunt ut labore et dolore magna aliqua. Ut enim ad minim veniam, quis nostrud exercitation ullamco laboris nisi ut aliquip ex ea commodo consequat.&amp;nbsp;" style="text;spacingTop=-5;whiteSpace=wrap;html=1;align=left;fontSize=12;fontFamily=Helvetica;fillColor=none;strokeColor=none;rounded=0;shadow=1;labelBackgroundColor=none;" vertex="1" parent="DtYzFk0tZi8KGS6SCTzv-5">
          <mxGeometry x="785" y="2010" width="200" height="150" as="geometry" />
        </mxCell>
        <mxCell id="DtYzFk0tZi8KGS6SCTzv-192" value="" style="verticalLabelPosition=bottom;shadow=0;dashed=0;align=center;html=1;verticalAlign=top;strokeWidth=1;shape=mxgraph.mockup.graphics.simpleIcon;strokeColor=#999999;fillColor=#ffffff;rounded=0;labelBackgroundColor=none;fontFamily=Verdana;fontSize=12;fontColor=#000000;" vertex="1" parent="DtYzFk0tZi8KGS6SCTzv-5">
          <mxGeometry x="50" y="1330" width="225" height="215" as="geometry" />
        </mxCell>
        <mxCell id="DtYzFk0tZi8KGS6SCTzv-193" value="&lt;font face=&quot;Merriweather Sans&quot;&gt;&lt;span style=&quot;font-size: 48px;&quot;&gt;Gallinas&lt;/span&gt;&lt;/font&gt;" style="text;html=1;points=[];align=left;verticalAlign=top;spacingTop=-4;fontSize=15;fontFamily=ROBOTO;fontSource=https%3A%2F%2Ffonts.googleapis.com%2Fcss%3Ffamily%3DROBOTO;" vertex="1" parent="DtYzFk0tZi8KGS6SCTzv-5">
          <mxGeometry x="52.5" y="1255" width="197.5" height="50" as="geometry" />
        </mxCell>
        <mxCell id="DtYzFk0tZi8KGS6SCTzv-194" value="Lorem ipsum dolor sit amet, consectetur adipisicing elit, sed do eiusmod tempor incididunt ut labore et dolore magna aliqua. Ut enim ad minim veniam, quis nostrud exercitation ullamco laboris nisi ut aliquip ex ea commodo consequat. Duis aute irure dolor in reprehenderit in voluptate velit esse cillum dolore eu fugiat nulla pariatur. Excepteur sint occaecat cupidatat non proident, sunt in culpa qui officia deserunt mollit anim id est laborum.&lt;br&gt;Sed ut perspiciatis unde omnis iste natus error sit voluptatem accusantium doloremque laudantium, totam rem aperiam, eaque ipsa quae ab illo inventore veritatis et quasi architecto beatae vitae dicta sunt explicabo.&amp;nbsp;" style="text;spacingTop=-5;whiteSpace=wrap;html=1;align=left;fontSize=12;fontFamily=Helvetica;fillColor=none;strokeColor=none;rounded=0;shadow=1;labelBackgroundColor=none;" vertex="1" parent="DtYzFk0tZi8KGS6SCTzv-5">
          <mxGeometry x="362.5" y="1340" width="610" height="190" as="geometry" />
        </mxCell>
        <mxCell id="DtYzFk0tZi8KGS6SCTzv-195" value="" style="verticalLabelPosition=bottom;shadow=0;dashed=0;align=center;html=1;verticalAlign=top;strokeWidth=1;shape=mxgraph.mockup.markup.line;strokeColor=#999999;rounded=0;labelBackgroundColor=none;fillColor=#ffffff;fontFamily=Verdana;fontSize=12;fontColor=#000000;" vertex="1" parent="DtYzFk0tZi8KGS6SCTzv-5">
          <mxGeometry y="1560" width="1050" height="80" as="geometry" />
        </mxCell>
        <mxCell id="DtYzFk0tZi8KGS6SCTzv-150" value="&lt;span style=&quot;color: rgba(0, 0, 0, 0); font-family: monospace; font-size: 0px;&quot;&gt;%3CmxGraphModel%3E%3Croot%3E%3CmxCell%20id%3D%220%22%2F%3E%3CmxCell%20id%3D%221%22%20parent%3D%220%22%2F%3E%3CmxCell%20id%3D%222%22%20value%3D%22%26lt%3Bfont%20style%3D%26quot%3Bfont-size%3A%2048px%3B%26quot%3B%20data-font-src%3D%26quot%3Bhttps%3A%2F%2Ffonts.googleapis.com%2Fcss%3Ffamily%3DMerriweather%2BSans%26quot%3B%20face%3D%26quot%3BMerriweather%20Sans%26quot%3B%26gt%3BLA%20FINCA%26lt%3B%2Ffont%26gt%3B%22%20style%3D%22text%3Bhtml%3D1%3Bpoints%3D%5B%5D%3Balign%3Dleft%3BverticalAlign%3Dtop%3BspacingTop%3D-4%3BfontSize%3D15%3BfontFamily%3DROBOTO%3BfontSource%3Dhttps%253A%252F%252Ffonts.googleapis.com%252Fcss%253Ffamily%253DROBOTO%3B%22%20vertex%3D%221%22%20parent%3D%221%22%3E%3CmxGeometry%20x%3D%221580%22%20y%3D%2280%22%20width%3D%22210%22%20height%3D%2250%22%20as%3D%22geometry%22%2F%3E%3C%2FmxCell%3E%3C%2Froot%3E%3C%2FmxGraphModel%3E&lt;/span&gt;" style="strokeWidth=1;shadow=0;dashed=0;align=center;html=1;shape=mxgraph.mockup.containers.browserWindow;rSize=0;strokeColor=#666666;mainText=,;recursiveResize=0;rounded=0;labelBackgroundColor=none;fontFamily=Verdana;fontSize=12" vertex="1" parent="1">
          <mxGeometry x="2260" y="-140" width="1050" height="1170" as="geometry" />
        </mxCell>
        <mxCell id="DtYzFk0tZi8KGS6SCTzv-151" value="Page 3" style="strokeWidth=1;shadow=0;dashed=0;align=center;html=1;shape=mxgraph.mockup.containers.anchor;fontSize=17;fontColor=#666666;align=left;" vertex="1" parent="DtYzFk0tZi8KGS6SCTzv-150">
          <mxGeometry x="60" y="12" width="110" height="26" as="geometry" />
        </mxCell>
        <mxCell id="DtYzFk0tZi8KGS6SCTzv-152" value="https://www.default.com" style="strokeWidth=1;shadow=0;dashed=0;align=center;html=1;shape=mxgraph.mockup.containers.anchor;rSize=0;fontSize=17;fontColor=#666666;align=left;" vertex="1" parent="DtYzFk0tZi8KGS6SCTzv-150">
          <mxGeometry x="130" y="60" width="250" height="26" as="geometry" />
        </mxCell>
        <mxCell id="DtYzFk0tZi8KGS6SCTzv-153" value="LOGO" style="text;html=1;points=[];align=left;verticalAlign=top;spacingTop=-4;fontSize=30;fontFamily=Verdana" vertex="1" parent="DtYzFk0tZi8KGS6SCTzv-150">
          <mxGeometry x="70" y="130" width="125" height="50" as="geometry" />
        </mxCell>
        <mxCell id="DtYzFk0tZi8KGS6SCTzv-154" value="&lt;font&gt;INICIO&lt;/font&gt;" style="text;html=1;points=[];align=left;verticalAlign=top;spacingTop=-4;fontSize=15;fontFamily=Merriweather Sans;fontSource=https%3A%2F%2Ffonts.googleapis.com%2Fcss%3Ffamily%3DMerriweather%2BSans;" vertex="1" parent="DtYzFk0tZi8KGS6SCTzv-150">
          <mxGeometry x="410" y="140" width="170" height="30" as="geometry" />
        </mxCell>
        <mxCell id="DtYzFk0tZi8KGS6SCTzv-155" value="&lt;font data-font-src=&quot;https://fonts.googleapis.com/css?family=Merriweather+Sans&quot; face=&quot;Merriweather Sans&quot;&gt;LA FINCA&lt;/font&gt;" style="text;html=1;points=[];align=left;verticalAlign=top;spacingTop=-4;fontSize=15;fontFamily=ROBOTO;fontSource=https%3A%2F%2Ffonts.googleapis.com%2Fcss%3Ffamily%3DROBOTO;" vertex="1" parent="DtYzFk0tZi8KGS6SCTzv-150">
          <mxGeometry x="510" y="140" width="170" height="30" as="geometry" />
        </mxCell>
        <mxCell id="DtYzFk0tZi8KGS6SCTzv-156" value="&lt;font face=&quot;Merriweather Sans&quot;&gt;NUESTROS PRODUCTOS&lt;span style=&quot;white-space: pre;&quot;&gt;&#x9;&lt;/span&gt;&lt;/font&gt;" style="text;html=1;points=[];align=left;verticalAlign=top;spacingTop=-4;fontSize=15;fontFamily=ROBOTO;fontSource=https%3A%2F%2Ffonts.googleapis.com%2Fcss%3Ffamily%3DROBOTO;fontStyle=4" vertex="1" parent="DtYzFk0tZi8KGS6SCTzv-150">
          <mxGeometry x="610" y="140" width="170" height="30" as="geometry" />
        </mxCell>
        <mxCell id="DtYzFk0tZi8KGS6SCTzv-157" value="" style="verticalLabelPosition=bottom;shadow=0;dashed=0;align=center;html=1;verticalAlign=top;strokeWidth=1;shape=mxgraph.mockup.markup.line;strokeColor=#999999;rounded=0;labelBackgroundColor=none;fillColor=#ffffff;fontFamily=Verdana;fontSize=12;fontColor=#000000;" vertex="1" parent="DtYzFk0tZi8KGS6SCTzv-150">
          <mxGeometry y="180" width="1050" height="20" as="geometry" />
        </mxCell>
        <mxCell id="DtYzFk0tZi8KGS6SCTzv-159" value="" style="verticalLabelPosition=bottom;shadow=0;dashed=0;align=center;html=1;verticalAlign=top;strokeWidth=1;shape=mxgraph.mockup.graphics.simpleIcon;strokeColor=#999999;fillColor=#ffffff;rounded=0;labelBackgroundColor=none;fontFamily=Verdana;fontSize=12;fontColor=#000000;" vertex="1" parent="DtYzFk0tZi8KGS6SCTzv-150">
          <mxGeometry x="580" y="440" width="225" height="215" as="geometry" />
        </mxCell>
        <mxCell id="DtYzFk0tZi8KGS6SCTzv-160" value="&lt;font data-font-src=&quot;https://fonts.googleapis.com/css?family=Merriweather+Sans&quot; face=&quot;Merriweather Sans&quot;&gt;LOCALIZACIÃ“N&lt;/font&gt;" style="text;html=1;points=[];align=left;verticalAlign=top;spacingTop=-4;fontSize=15;fontFamily=ROBOTO;fontSource=https%3A%2F%2Ffonts.googleapis.com%2Fcss%3Ffamily%3DROBOTO;" vertex="1" parent="DtYzFk0tZi8KGS6SCTzv-150">
          <mxGeometry x="810" y="140" width="170" height="30" as="geometry" />
        </mxCell>
        <mxCell id="DtYzFk0tZi8KGS6SCTzv-161" value="&lt;font data-font-src=&quot;https://fonts.googleapis.com/css?family=Merriweather+Sans&quot; face=&quot;Merriweather Sans&quot;&gt;CONTACTO&lt;/font&gt;" style="text;html=1;points=[];align=left;verticalAlign=top;spacingTop=-4;fontSize=15;fontFamily=ROBOTO;fontSource=https%3A%2F%2Ffonts.googleapis.com%2Fcss%3Ffamily%3DROBOTO;" vertex="1" parent="DtYzFk0tZi8KGS6SCTzv-150">
          <mxGeometry x="940" y="140" width="170" height="30" as="geometry" />
        </mxCell>
        <mxCell id="DtYzFk0tZi8KGS6SCTzv-166" value="&lt;font style=&quot;font-size: 48px;&quot; data-font-src=&quot;https://fonts.googleapis.com/css?family=Merriweather+Sans&quot; face=&quot;Merriweather Sans&quot;&gt;NUESTROS PRODUCTOS&lt;/font&gt;" style="text;html=1;points=[];align=left;verticalAlign=top;spacingTop=-4;fontSize=15;fontFamily=ROBOTO;fontSource=https%3A%2F%2Ffonts.googleapis.com%2Fcss%3Ffamily%3DROBOTO;" vertex="1" parent="DtYzFk0tZi8KGS6SCTzv-150">
          <mxGeometry x="210" y="220" width="560" height="50" as="geometry" />
        </mxCell>
        <mxCell id="DtYzFk0tZi8KGS6SCTzv-168" value="&lt;font face=&quot;Merriweather Sans&quot;&gt;&lt;span style=&quot;font-size: 48px;&quot;&gt;Sobrasada&lt;/span&gt;&lt;/font&gt;" style="text;html=1;points=[];align=left;verticalAlign=top;spacingTop=-4;fontSize=15;fontFamily=ROBOTO;fontSource=https%3A%2F%2Ffonts.googleapis.com%2Fcss%3Ffamily%3DROBOTO;" vertex="1" parent="DtYzFk0tZi8KGS6SCTzv-150">
          <mxGeometry x="580" y="360" width="240" height="50" as="geometry" />
        </mxCell>
        <mxCell id="DtYzFk0tZi8KGS6SCTzv-188" value="" style="verticalLabelPosition=bottom;shadow=0;dashed=0;align=center;html=1;verticalAlign=top;strokeWidth=1;shape=mxgraph.mockup.graphics.simpleIcon;strokeColor=#999999;fillColor=#ffffff;rounded=0;labelBackgroundColor=none;fontFamily=Verdana;fontSize=12;fontColor=#000000;" vertex="1" parent="DtYzFk0tZi8KGS6SCTzv-150">
          <mxGeometry x="160" y="800" width="225" height="215" as="geometry" />
        </mxCell>
        <mxCell id="DtYzFk0tZi8KGS6SCTzv-189" value="&lt;font face=&quot;Merriweather Sans&quot;&gt;&lt;span style=&quot;font-size: 48px;&quot;&gt;Carnixua&lt;/span&gt;&lt;/font&gt;" style="text;html=1;points=[];align=left;verticalAlign=top;spacingTop=-4;fontSize=15;fontFamily=ROBOTO;fontSource=https%3A%2F%2Ffonts.googleapis.com%2Fcss%3Ffamily%3DROBOTO;" vertex="1" parent="DtYzFk0tZi8KGS6SCTzv-150">
          <mxGeometry x="160" y="720" width="240" height="50" as="geometry" />
        </mxCell>
        <mxCell id="DtYzFk0tZi8KGS6SCTzv-190" value="&amp;lt;" style="verticalLabelPosition=bottom;shadow=0;dashed=0;align=center;html=1;verticalAlign=top;strokeWidth=1;shape=mxgraph.mockup.graphics.simpleIcon;strokeColor=#999999;fillColor=#ffffff;rounded=0;labelBackgroundColor=none;fontFamily=Verdana;fontSize=12;fontColor=#000000;" vertex="1" parent="DtYzFk0tZi8KGS6SCTzv-150">
          <mxGeometry x="590" y="810" width="225" height="215" as="geometry" />
        </mxCell>
        <mxCell id="DtYzFk0tZi8KGS6SCTzv-191" value="&lt;font face=&quot;Merriweather Sans&quot;&gt;&lt;span style=&quot;font-size: 48px;&quot;&gt;Camot&lt;/span&gt;&lt;/font&gt;" style="text;html=1;points=[];align=left;verticalAlign=top;spacingTop=-4;fontSize=15;fontFamily=ROBOTO;fontSource=https%3A%2F%2Ffonts.googleapis.com%2Fcss%3Ffamily%3DROBOTO;" vertex="1" parent="DtYzFk0tZi8KGS6SCTzv-150">
          <mxGeometry x="590" y="730" width="240" height="50" as="geometry" />
        </mxCell>
        <mxCell id="DtYzFk0tZi8KGS6SCTzv-196" value="" style="verticalLabelPosition=bottom;shadow=0;dashed=0;align=center;html=1;verticalAlign=top;strokeWidth=1;shape=mxgraph.mockup.graphics.simpleIcon;strokeColor=#999999;fillColor=#ffffff;rounded=0;labelBackgroundColor=none;fontFamily=Verdana;fontSize=12;fontColor=#000000;" vertex="1" parent="DtYzFk0tZi8KGS6SCTzv-150">
          <mxGeometry x="160" y="430" width="225" height="215" as="geometry" />
        </mxCell>
        <mxCell id="DtYzFk0tZi8KGS6SCTzv-197" value="&lt;font face=&quot;Merriweather Sans&quot;&gt;&lt;span style=&quot;font-size: 48px;&quot;&gt;Huevos&lt;/span&gt;&lt;/font&gt;" style="text;html=1;points=[];align=left;verticalAlign=top;spacingTop=-4;fontSize=15;fontFamily=ROBOTO;fontSource=https%3A%2F%2Ffonts.googleapis.com%2Fcss%3Ffamily%3DROBOTO;" vertex="1" parent="DtYzFk0tZi8KGS6SCTzv-150">
          <mxGeometry x="160" y="350" width="240" height="50" as="geometry" />
        </mxCell>
        <mxCell id="DtYzFk0tZi8KGS6SCTzv-202" value="+ Info" style="strokeWidth=1;shadow=0;dashed=0;align=center;html=1;shape=mxgraph.mockup.buttons.button;strokeColor=#666666;mainText=;buttonStyle=round;fontSize=17;fontStyle=0;fillColor=none;whiteSpace=wrap;rounded=0;labelBackgroundColor=none;" vertex="1" parent="DtYzFk0tZi8KGS6SCTzv-150">
          <mxGeometry x="305" y="655" width="80" height="30" as="geometry" />
        </mxCell>
        <mxCell id="DtYzFk0tZi8KGS6SCTzv-203" value="+ Info" style="strokeWidth=1;shadow=0;dashed=0;align=center;html=1;shape=mxgraph.mockup.buttons.button;strokeColor=#666666;mainText=;buttonStyle=round;fontSize=17;fontStyle=0;fillColor=none;whiteSpace=wrap;rounded=0;labelBackgroundColor=none;" vertex="1" parent="DtYzFk0tZi8KGS6SCTzv-150">
          <mxGeometry x="725" y="665" width="80" height="30" as="geometry" />
        </mxCell>
        <mxCell id="DtYzFk0tZi8KGS6SCTzv-204" value="+ Info" style="strokeWidth=1;shadow=0;dashed=0;align=center;html=1;shape=mxgraph.mockup.buttons.button;strokeColor=#666666;mainText=;buttonStyle=round;fontSize=17;fontStyle=0;fillColor=none;whiteSpace=wrap;rounded=0;labelBackgroundColor=none;" vertex="1" parent="DtYzFk0tZi8KGS6SCTzv-150">
          <mxGeometry x="305" y="1040" width="80" height="30" as="geometry" />
        </mxCell>
        <mxCell id="DtYzFk0tZi8KGS6SCTzv-205" value="+ Info" style="strokeWidth=1;shadow=0;dashed=0;align=center;html=1;shape=mxgraph.mockup.buttons.button;strokeColor=#666666;mainText=;buttonStyle=round;fontSize=17;fontStyle=0;fillColor=none;whiteSpace=wrap;rounded=0;labelBackgroundColor=none;" vertex="1" parent="DtYzFk0tZi8KGS6SCTzv-150">
          <mxGeometry x="740" y="1040" width="80" height="30" as="geometry" />
        </mxCell>
        <mxCell id="DtYzFk0tZi8KGS6SCTzv-206" value="&#xa;&lt;span style=&quot;color: rgb(0, 0, 0); font-family: &amp;quot;Merriweather Sans&amp;quot;; font-size: 15px; font-style: normal; font-variant-ligatures: normal; font-variant-caps: normal; font-weight: 400; letter-spacing: normal; orphans: 2; text-align: left; text-indent: 0px; text-transform: none; widows: 2; word-spacing: 0px; -webkit-text-stroke-width: 0px; white-space: nowrap; background-color: rgb(251, 251, 251); text-decoration-thickness: initial; text-decoration-style: initial; text-decoration-color: initial; display: inline !important; float: none;&quot;&gt;INICIO&lt;/span&gt;&#xa;&#xa;" style="strokeWidth=1;shadow=0;dashed=0;align=center;html=1;shape=mxgraph.mockup.containers.browserWindow;rSize=0;strokeColor=#666666;mainText=,;recursiveResize=0;rounded=0;labelBackgroundColor=none;fontFamily=Verdana;fontSize=12" vertex="1" parent="1">
          <mxGeometry x="3340" y="-140" width="1050" height="820" as="geometry" />
        </mxCell>
        <mxCell id="DtYzFk0tZi8KGS6SCTzv-207" value="Page 4" style="strokeWidth=1;shadow=0;dashed=0;align=center;html=1;shape=mxgraph.mockup.containers.anchor;fontSize=17;fontColor=#666666;align=left;" vertex="1" parent="DtYzFk0tZi8KGS6SCTzv-206">
          <mxGeometry x="60" y="12" width="110" height="26" as="geometry" />
        </mxCell>
        <mxCell id="DtYzFk0tZi8KGS6SCTzv-208" value="https://www.default.com" style="strokeWidth=1;shadow=0;dashed=0;align=center;html=1;shape=mxgraph.mockup.containers.anchor;rSize=0;fontSize=17;fontColor=#666666;align=left;" vertex="1" parent="DtYzFk0tZi8KGS6SCTzv-206">
          <mxGeometry x="130" y="60" width="250" height="26" as="geometry" />
        </mxCell>
        <mxCell id="DtYzFk0tZi8KGS6SCTzv-209" value="LOGO" style="text;html=1;points=[];align=left;verticalAlign=top;spacingTop=-4;fontSize=30;fontFamily=Verdana" vertex="1" parent="DtYzFk0tZi8KGS6SCTzv-206">
          <mxGeometry x="70" y="130" width="125" height="50" as="geometry" />
        </mxCell>
        <mxCell id="DtYzFk0tZi8KGS6SCTzv-210" value="&lt;font&gt;INICIO&lt;/font&gt;" style="text;html=1;points=[];align=left;verticalAlign=top;spacingTop=-4;fontSize=15;fontFamily=Merriweather Sans;fontSource=https%3A%2F%2Ffonts.googleapis.com%2Fcss%3Ffamily%3DMerriweather%2BSans;" vertex="1" parent="DtYzFk0tZi8KGS6SCTzv-206">
          <mxGeometry x="410" y="140" width="170" height="30" as="geometry" />
        </mxCell>
        <mxCell id="DtYzFk0tZi8KGS6SCTzv-211" value="&lt;font data-font-src=&quot;https://fonts.googleapis.com/css?family=Merriweather+Sans&quot; face=&quot;Merriweather Sans&quot;&gt;LA FINCA&lt;/font&gt;" style="text;html=1;points=[];align=left;verticalAlign=top;spacingTop=-4;fontSize=15;fontFamily=ROBOTO;fontSource=https%3A%2F%2Ffonts.googleapis.com%2Fcss%3Ffamily%3DROBOTO;" vertex="1" parent="DtYzFk0tZi8KGS6SCTzv-206">
          <mxGeometry x="510" y="140" width="170" height="30" as="geometry" />
        </mxCell>
        <mxCell id="DtYzFk0tZi8KGS6SCTzv-212" value="&lt;font face=&quot;Merriweather Sans&quot;&gt;NUESTROS PRODUCTOS&lt;span style=&quot;white-space: pre;&quot;&gt;&#x9;&lt;/span&gt;&lt;/font&gt;" style="text;html=1;points=[];align=left;verticalAlign=top;spacingTop=-4;fontSize=15;fontFamily=ROBOTO;fontSource=https%3A%2F%2Ffonts.googleapis.com%2Fcss%3Ffamily%3DROBOTO;" vertex="1" parent="DtYzFk0tZi8KGS6SCTzv-206">
          <mxGeometry x="610" y="140" width="170" height="30" as="geometry" />
        </mxCell>
        <mxCell id="DtYzFk0tZi8KGS6SCTzv-213" value="" style="verticalLabelPosition=bottom;shadow=0;dashed=0;align=center;html=1;verticalAlign=top;strokeWidth=1;shape=mxgraph.mockup.markup.line;strokeColor=#999999;rounded=0;labelBackgroundColor=none;fillColor=#ffffff;fontFamily=Verdana;fontSize=12;fontColor=#000000;" vertex="1" parent="DtYzFk0tZi8KGS6SCTzv-206">
          <mxGeometry y="180" width="1050" height="20" as="geometry" />
        </mxCell>
        <mxCell id="DtYzFk0tZi8KGS6SCTzv-215" value="" style="verticalLabelPosition=bottom;shadow=0;dashed=0;align=center;html=1;verticalAlign=top;strokeWidth=1;shape=mxgraph.mockup.graphics.simpleIcon;strokeColor=#999999;fillColor=#ffffff;rounded=0;labelBackgroundColor=none;fontFamily=Verdana;fontSize=12;fontColor=#000000;" vertex="1" parent="DtYzFk0tZi8KGS6SCTzv-206">
          <mxGeometry x="20" y="390" width="1010" height="375" as="geometry" />
        </mxCell>
        <mxCell id="DtYzFk0tZi8KGS6SCTzv-216" value="&lt;font data-font-src=&quot;https://fonts.googleapis.com/css?family=Merriweather+Sans&quot; face=&quot;Merriweather Sans&quot;&gt;&lt;u&gt;LOCALIZACIÃ“N&lt;/u&gt;&lt;/font&gt;" style="text;html=1;points=[];align=left;verticalAlign=top;spacingTop=-4;fontSize=15;fontFamily=ROBOTO;fontSource=https%3A%2F%2Ffonts.googleapis.com%2Fcss%3Ffamily%3DROBOTO;" vertex="1" parent="DtYzFk0tZi8KGS6SCTzv-206">
          <mxGeometry x="810" y="140" width="170" height="30" as="geometry" />
        </mxCell>
        <mxCell id="DtYzFk0tZi8KGS6SCTzv-217" value="&lt;font data-font-src=&quot;https://fonts.googleapis.com/css?family=Merriweather+Sans&quot; face=&quot;Merriweather Sans&quot;&gt;CONTACTO&lt;/font&gt;" style="text;html=1;points=[];align=left;verticalAlign=top;spacingTop=-4;fontSize=15;fontFamily=ROBOTO;fontSource=https%3A%2F%2Ffonts.googleapis.com%2Fcss%3Ffamily%3DROBOTO;" vertex="1" parent="DtYzFk0tZi8KGS6SCTzv-206">
          <mxGeometry x="940" y="140" width="170" height="30" as="geometry" />
        </mxCell>
        <mxCell id="DtYzFk0tZi8KGS6SCTzv-218" value="Lorem ipsum dolor sit amet, consectetur adipisicing elit, sed do eiusmod tempor incididunt ut labore et dolore magna aliqua. Ut enim ad minim veniam, quis nostrud exercitation ullamco laboris nisi ut aliquip ex ea commodo consequat. Duis aute irure dolor in reprehenderit in voluptate velit esse cillum dolore eu fugiat nulla pariatur. Excepteur sint occaecat cupidatat non proident, sunt in culpa qui officia deserunt mollit anim id est laborum.&lt;br&gt;Sed ut perspiciatis unde omnis iste natus error sit voluptatem accusantium doloremque laudantium, totam rem aperiam, eaque ipsa quae ab illo inventore veritatis et quasi architecto beatae vitae dicta sunt explicabo.&amp;nbsp;" style="text;spacingTop=-5;whiteSpace=wrap;html=1;align=left;fontSize=12;fontFamily=Helvetica;fillColor=none;strokeColor=none;rounded=0;shadow=1;labelBackgroundColor=none;" vertex="1" parent="DtYzFk0tZi8KGS6SCTzv-206">
          <mxGeometry x="25" y="280" width="1000" height="90" as="geometry" />
        </mxCell>
        <mxCell id="DtYzFk0tZi8KGS6SCTzv-221" value="&lt;font style=&quot;font-size: 30px;&quot;&gt;MAPA&lt;/font&gt;" style="text;html=1;points=[];align=left;verticalAlign=top;spacingTop=-4;fontSize=15;fontFamily=Merriweather Sans;fontSource=https%3A%2F%2Ffonts.googleapis.com%2Fcss%3Ffamily%3DMerriweather%2BSans;" vertex="1" parent="DtYzFk0tZi8KGS6SCTzv-206">
          <mxGeometry x="480" y="530" width="170" height="30" as="geometry" />
        </mxCell>
        <mxCell id="DtYzFk0tZi8KGS6SCTzv-235" value="&lt;font style=&quot;font-size: 48px;&quot; data-font-src=&quot;https://fonts.googleapis.com/css?family=Merriweather+Sans&quot; face=&quot;Merriweather Sans&quot;&gt;LOCALIZACIÃ“N&lt;/font&gt;" style="text;html=1;points=[];align=center;verticalAlign=top;spacingTop=-4;fontSize=15;fontFamily=ROBOTO;fontSource=https%3A%2F%2Ffonts.googleapis.com%2Fcss%3Ffamily%3DROBOTO;" vertex="1" parent="DtYzFk0tZi8KGS6SCTzv-206">
          <mxGeometry x="245" y="210" width="560" height="50" as="geometry" />
        </mxCell>
        <mxCell id="DtYzFk0tZi8KGS6SCTzv-236" value="" style="strokeWidth=1;shadow=0;dashed=0;align=center;html=1;shape=mxgraph.mockup.containers.browserWindow;rSize=0;strokeColor=#666666;mainText=,;recursiveResize=0;rounded=0;labelBackgroundColor=none;fontFamily=Verdana;fontSize=12" vertex="1" parent="1">
          <mxGeometry x="4440" y="-140" width="1050" height="820" as="geometry" />
        </mxCell>
        <mxCell id="DtYzFk0tZi8KGS6SCTzv-237" value="Page 4" style="strokeWidth=1;shadow=0;dashed=0;align=center;html=1;shape=mxgraph.mockup.containers.anchor;fontSize=17;fontColor=#666666;align=left;" vertex="1" parent="DtYzFk0tZi8KGS6SCTzv-236">
          <mxGeometry x="60" y="12" width="110" height="26" as="geometry" />
        </mxCell>
        <mxCell id="DtYzFk0tZi8KGS6SCTzv-238" value="https://www.default.com" style="strokeWidth=1;shadow=0;dashed=0;align=center;html=1;shape=mxgraph.mockup.containers.anchor;rSize=0;fontSize=17;fontColor=#666666;align=left;" vertex="1" parent="DtYzFk0tZi8KGS6SCTzv-236">
          <mxGeometry x="130" y="60" width="250" height="26" as="geometry" />
        </mxCell>
        <mxCell id="DtYzFk0tZi8KGS6SCTzv-239" value="LOGO" style="text;html=1;points=[];align=left;verticalAlign=top;spacingTop=-4;fontSize=30;fontFamily=Verdana" vertex="1" parent="DtYzFk0tZi8KGS6SCTzv-236">
          <mxGeometry x="70" y="130" width="125" height="50" as="geometry" />
        </mxCell>
        <mxCell id="DtYzFk0tZi8KGS6SCTzv-240" value="&lt;font&gt;INICIO&lt;/font&gt;" style="text;html=1;points=[];align=left;verticalAlign=top;spacingTop=-4;fontSize=15;fontFamily=Merriweather Sans;fontSource=https%3A%2F%2Ffonts.googleapis.com%2Fcss%3Ffamily%3DMerriweather%2BSans;" vertex="1" parent="DtYzFk0tZi8KGS6SCTzv-236">
          <mxGeometry x="410" y="140" width="170" height="30" as="geometry" />
        </mxCell>
        <mxCell id="DtYzFk0tZi8KGS6SCTzv-241" value="&lt;font data-font-src=&quot;https://fonts.googleapis.com/css?family=Merriweather+Sans&quot; face=&quot;Merriweather Sans&quot;&gt;LA FINCA&lt;/font&gt;" style="text;html=1;points=[];align=left;verticalAlign=top;spacingTop=-4;fontSize=15;fontFamily=ROBOTO;fontSource=https%3A%2F%2Ffonts.googleapis.com%2Fcss%3Ffamily%3DROBOTO;" vertex="1" parent="DtYzFk0tZi8KGS6SCTzv-236">
          <mxGeometry x="510" y="140" width="170" height="30" as="geometry" />
        </mxCell>
        <mxCell id="DtYzFk0tZi8KGS6SCTzv-242" value="&lt;font face=&quot;Merriweather Sans&quot;&gt;NUESTROS PRODUCTOS&lt;span style=&quot;white-space: pre;&quot;&gt;&#x9;&lt;/span&gt;&lt;/font&gt;" style="text;html=1;points=[];align=left;verticalAlign=top;spacingTop=-4;fontSize=15;fontFamily=ROBOTO;fontSource=https%3A%2F%2Ffonts.googleapis.com%2Fcss%3Ffamily%3DROBOTO;" vertex="1" parent="DtYzFk0tZi8KGS6SCTzv-236">
          <mxGeometry x="610" y="140" width="170" height="30" as="geometry" />
        </mxCell>
        <mxCell id="DtYzFk0tZi8KGS6SCTzv-243" value="" style="verticalLabelPosition=bottom;shadow=0;dashed=0;align=center;html=1;verticalAlign=top;strokeWidth=1;shape=mxgraph.mockup.markup.line;strokeColor=#999999;rounded=0;labelBackgroundColor=none;fillColor=#ffffff;fontFamily=Verdana;fontSize=12;fontColor=#000000;" vertex="1" parent="DtYzFk0tZi8KGS6SCTzv-236">
          <mxGeometry y="180" width="1050" height="20" as="geometry" />
        </mxCell>
        <mxCell id="DtYzFk0tZi8KGS6SCTzv-245" value="&lt;font data-font-src=&quot;https://fonts.googleapis.com/css?family=Merriweather+Sans&quot; face=&quot;Merriweather Sans&quot;&gt;&lt;u&gt;LOCALIZACIÃ“N&lt;/u&gt;&lt;/font&gt;" style="text;html=1;points=[];align=left;verticalAlign=top;spacingTop=-4;fontSize=15;fontFamily=ROBOTO;fontSource=https%3A%2F%2Ffonts.googleapis.com%2Fcss%3Ffamily%3DROBOTO;" vertex="1" parent="DtYzFk0tZi8KGS6SCTzv-236">
          <mxGeometry x="810" y="140" width="170" height="30" as="geometry" />
        </mxCell>
        <mxCell id="DtYzFk0tZi8KGS6SCTzv-246" value="&lt;font data-font-src=&quot;https://fonts.googleapis.com/css?family=Merriweather+Sans&quot; face=&quot;Merriweather Sans&quot;&gt;CONTACTO&lt;/font&gt;" style="text;html=1;points=[];align=left;verticalAlign=top;spacingTop=-4;fontSize=15;fontFamily=ROBOTO;fontSource=https%3A%2F%2Ffonts.googleapis.com%2Fcss%3Ffamily%3DROBOTO;" vertex="1" parent="DtYzFk0tZi8KGS6SCTzv-236">
          <mxGeometry x="940" y="140" width="170" height="30" as="geometry" />
        </mxCell>
        <mxCell id="DtYzFk0tZi8KGS6SCTzv-247" value="Lorem ipsum dolor sit amet, consectetur adipisicing elit, sed do eiusmod tempor incididunt ut labore et dolore magna aliqua. Ut enim ad minim veniam, quis nostrud exercitation ullamco laboris nisi ut aliquip ex ea commodo consequat. Duis aute irure dolor in reprehenderit in voluptate velit esse cillum dolore eu fugiat nulla pariatur. Excepteur sint occaecat cupidatat non&amp;nbsp;" style="text;spacingTop=-5;whiteSpace=wrap;html=1;align=left;fontSize=12;fontFamily=Helvetica;fillColor=none;strokeColor=none;rounded=0;shadow=1;labelBackgroundColor=none;" vertex="1" parent="DtYzFk0tZi8KGS6SCTzv-236">
          <mxGeometry x="25" y="280" width="1000" height="50" as="geometry" />
        </mxCell>
        <mxCell id="DtYzFk0tZi8KGS6SCTzv-249" value="&lt;font style=&quot;font-size: 48px;&quot; data-font-src=&quot;https://fonts.googleapis.com/css?family=Merriweather+Sans&quot; face=&quot;Merriweather Sans&quot;&gt;CONTACTO&lt;/font&gt;" style="text;html=1;points=[];align=center;verticalAlign=top;spacingTop=-4;fontSize=15;fontFamily=ROBOTO;fontSource=https%3A%2F%2Ffonts.googleapis.com%2Fcss%3Ffamily%3DROBOTO;" vertex="1" parent="DtYzFk0tZi8KGS6SCTzv-236">
          <mxGeometry x="245" y="210" width="560" height="50" as="geometry" />
        </mxCell>
        <mxCell id="DtYzFk0tZi8KGS6SCTzv-250" value="Pool" style="swimlane;childLayout=stackLayout;resizeParent=1;resizeParentMax=0;horizontal=1;startSize=20;horizontalStack=0;html=1;" vertex="1" parent="DtYzFk0tZi8KGS6SCTzv-236">
          <mxGeometry x="70" y="340" width="480" height="380" as="geometry" />
        </mxCell>
        <mxCell id="DtYzFk0tZi8KGS6SCTzv-251" value="Lane 1" style="swimlane;startSize=90;horizontal=0;html=1;" vertex="1" parent="DtYzFk0tZi8KGS6SCTzv-250">
          <mxGeometry y="20" width="480" height="120" as="geometry" />
        </mxCell>
        <mxCell id="DtYzFk0tZi8KGS6SCTzv-252" value="Lane 2" style="swimlane;startSize=20;horizontal=0;html=1;" vertex="1" parent="DtYzFk0tZi8KGS6SCTzv-250">
          <mxGeometry y="140" width="480" height="120" as="geometry" />
        </mxCell>
        <mxCell id="DtYzFk0tZi8KGS6SCTzv-253" value="Lane 3" style="swimlane;startSize=20;horizontal=0;html=1;" vertex="1" parent="DtYzFk0tZi8KGS6SCTzv-250">
          <mxGeometry y="260" width="480" height="120" as="geometry" />
        </mxCell>
      </root>
    </mxGraphModel>
  </diagram>
</mxfile>
